<?xml version="1.0" encoding="UTF-8"?>
<svg xmlns="http://www.w3.org/2000/svg" xmlns:xlink="http://www.w3.org/1999/xlink" width="246.13pt" height="241.86pt" viewBox="0 0 246.13 241.86" version="1.1">
<defs>
<clipPath id="clip1">
  <path d="M 0 0 L 246.128906 0 L 246.128906 241.859375 L 0 241.859375 Z M 0 0 "/>
</clipPath>
</defs>
<g id="surface1">
<g clip-path="url(#clip1)" clip-rule="nonzero">
<path style=" stroke:none;fill-rule:nonzero;fill:rgb(12.89978%,12.5%,33.299255%);fill-opacity:1;" d="M 246.128906 120.929688 C 246.128906 187.71875 191.03125 241.859375 123.0625 241.859375 C 55.097656 241.859375 0 187.71875 0 120.929688 C 0 54.144531 55.097656 0.00390625 123.0625 0.00390625 C 191.03125 0.00390625 246.128906 54.144531 246.128906 120.929688 "/>
</g>
<path style=" stroke:none;fill-rule:nonzero;fill:rgb(100%,100%,100%);fill-opacity:1;" d="M 97.394531 216.246094 L 91.410156 233.59375 L 88.328125 232.53125 L 85.90625 218.730469 L 81.910156 230.316406 L 78.96875 229.300781 L 84.953125 211.953125 L 88.128906 213.046875 L 90.550781 226.542969 L 94.457031 215.230469 L 97.394531 216.246094 "/>
<path style=" stroke:none;fill-rule:nonzero;fill:rgb(100%,100%,100%);fill-opacity:1;" d="M 68.582031 203.316406 L 71.773438 205.070313 L 71.035156 209.421875 L 76.84375 212.621094 L 80.054688 209.625 L 83.167969 211.339844 L 68.664063 224.304688 L 65.558594 222.597656 Z M 70.484375 212.652344 L 69.207031 219.71875 L 74.453125 214.832031 Z M 70.484375 212.652344 "/>
<path style=" stroke:none;fill-rule:nonzero;fill:rgb(100%,100%,100%);fill-opacity:1;" d="M 65.546875 200.789063 L 56.371094 212.972656 L 60.304688 215.933594 L 58.4375 218.414063 L 47.90625 210.480469 L 49.773438 208 L 53.695313 210.957031 L 62.867188 198.773438 L 65.546875 200.789063 "/>
<path style=" stroke:none;fill-rule:nonzero;fill:rgb(100%,100%,100%);fill-opacity:1;" d="M 57.34375 194.117188 L 44.78125 207.496094 L 42.335938 205.203125 L 54.902344 191.824219 L 57.34375 194.117188 "/>
<path style=" stroke:none;fill-rule:nonzero;fill:rgb(100%,100%,100%);fill-opacity:1;" d="M 45.757813 195.882813 C 44.316406 197.074219 42.945313 197.875 41.644531 198.292969 C 40.683594 198.597656 39.710938 198.734375 38.71875 198.703125 C 37.730469 198.671875 36.851563 198.46875 36.082031 198.097656 C 35.050781 197.609375 34.105469 196.84375 33.246094 195.800781 C 31.691406 193.914063 31.09375 191.871094 31.453125 189.671875 C 31.8125 187.472656 33.148438 185.421875 35.453125 183.523438 C 37.738281 181.636719 39.988281 180.722656 42.207031 180.78125 C 44.421875 180.84375 46.308594 181.8125 47.859375 183.691406 C 49.425781 185.597656 50.035156 187.640625 49.675781 189.820313 C 49.320313 192.003906 48.011719 194.023438 45.757813 195.882813 Z M 43.464844 193.300781 C 45.070313 191.976563 46.007813 190.640625 46.285156 189.289063 C 46.558594 187.9375 46.273438 186.746094 45.421875 185.714844 C 44.574219 184.683594 43.464844 184.179688 42.097656 184.195313 C 40.734375 184.210938 39.230469 184.894531 37.585938 186.25 C 35.964844 187.589844 35.019531 188.90625 34.753906 190.210938 C 34.484375 191.511719 34.789063 192.695313 35.667969 193.761719 C 36.546875 194.824219 37.65625 195.351563 39.003906 195.335938 C 40.351563 195.320313 41.835938 194.644531 43.464844 193.300781 "/>
<path style=" stroke:none;fill-rule:nonzero;fill:rgb(100%,100%,100%);fill-opacity:1;" d="M 41.128906 175.457031 L 25.140625 184.46875 L 23.539063 181.628906 L 30.886719 169.695313 L 20.207031 175.710938 L 18.679688 173 L 34.667969 163.992188 L 36.320313 166.917969 L 29.175781 178.621094 L 39.601563 172.746094 L 41.128906 175.457031 "/>
<path style=" stroke:none;fill-rule:nonzero;fill:rgb(100%,100%,100%);fill-opacity:1;" d="M 28.144531 146.667969 L 29.367188 150.097656 L 25.929688 152.867188 L 28.160156 159.113281 L 32.546875 159 L 33.742188 162.347656 L 14.285156 162.433594 L 13.09375 159.097656 Z M 23.378906 154.917969 L 17.734375 159.363281 L 24.902344 159.183594 Z M 23.378906 154.917969 "/>
<path style=" stroke:none;fill-rule:nonzero;fill:rgb(100%,100%,100%);fill-opacity:1;" d="M 27.859375 144.71875 L 9.96875 148.058594 L 9.351563 144.765625 L 24.203125 141.992188 L 22.675781 133.804688 L 25.714844 133.234375 L 27.859375 144.71875 "/>
<path style=" stroke:none;fill-rule:nonzero;fill:rgb(100%,100%,100%);fill-opacity:1;" d="M 6.703125 123.597656 L 6.84375 120.25 L 16.773438 120.660156 C 18.347656 120.726563 19.371094 120.726563 19.84375 120.664063 C 20.597656 120.550781 21.21875 120.234375 21.695313 119.714844 C 22.167969 119.195313 22.425781 118.46875 22.464844 117.53125 C 22.507813 116.582031 22.320313 115.859375 21.910156 115.359375 C 21.5 114.855469 20.984375 114.546875 20.363281 114.421875 C 19.742188 114.296875 18.707031 114.207031 17.257813 114.144531 L 7.113281 113.726563 L 7.25 110.378906 L 16.882813 110.777344 C 19.082031 110.867188 20.636719 111.023438 21.535156 111.242188 C 22.4375 111.460938 23.191406 111.824219 23.796875 112.335938 C 24.402344 112.847656 24.871094 113.519531 25.210938 114.351563 C 25.546875 115.179688 25.6875 116.25 25.636719 117.5625 C 25.570313 119.144531 25.316406 120.335938 24.878906 121.136719 C 24.441406 121.941406 23.886719 122.566406 23.222656 123.011719 C 22.554688 123.460938 21.867188 123.746094 21.152344 123.867188 C 20.09375 124.042969 18.535156 124.085938 16.484375 124.003906 L 6.703125 123.597656 "/>
<path style=" stroke:none;fill-rule:nonzero;fill:rgb(100%,100%,100%);fill-opacity:1;" d="M 26.03125 107.589844 L 8.09375 103.714844 L 8.78125 100.527344 L 22.195313 96.480469 L 10.21875 93.890625 L 10.875 90.847656 L 28.8125 94.726563 L 28.101563 98.011719 L 14.992188 102.023438 L 26.691406 104.550781 L 26.03125 107.589844 "/>
<path style=" stroke:none;fill-rule:nonzero;fill:rgb(100%,100%,100%);fill-opacity:1;" d="M 30.082031 91.269531 L 12.730469 85.289063 L 13.820313 82.121094 L 31.171875 88.101563 L 30.082031 91.269531 "/>
<path style=" stroke:none;fill-rule:nonzero;fill:rgb(100%,100%,100%);fill-opacity:1;" d="M 34.070313 81.011719 L 14.953125 78.453125 L 16.515625 75.171875 L 30.585938 77.238281 L 20.078125 67.71875 L 21.609375 64.511719 L 35.609375 77.78125 L 34.070313 81.011719 "/>
<path style=" stroke:none;fill-rule:nonzero;fill:rgb(100%,100%,100%);fill-opacity:1;" d="M 39.1875 70.925781 L 24.097656 60.484375 L 31.097656 50.363281 L 33.648438 52.132813 L 28.554688 59.496094 L 31.902344 61.808594 L 36.640625 54.960938 L 39.183594 56.71875 L 34.445313 63.570313 L 38.550781 66.410156 L 43.828125 58.789063 L 46.367188 60.546875 L 39.1875 70.925781 "/>
<path style=" stroke:none;fill-rule:nonzero;fill:rgb(100%,100%,100%);fill-opacity:1;" d="M 48.195313 58.316406 L 35.03125 45.527344 L 39.945313 40.472656 C 41.179688 39.199219 42.195313 38.390625 42.992188 38.042969 C 43.789063 37.695313 44.65625 37.644531 45.597656 37.886719 C 46.539063 38.125 47.398438 38.625 48.175781 39.378906 C 49.164063 40.339844 49.722656 41.394531 49.859375 42.542969 C 49.992188 43.695313 49.636719 44.871094 48.785156 46.082031 C 49.628906 45.886719 50.410156 45.816406 51.144531 45.867188 C 51.871094 45.917969 53.027344 46.152344 54.609375 46.574219 L 58.589844 47.617188 L 55.796875 50.488281 L 51.242188 49.445313 C 49.621094 49.066406 48.566406 48.863281 48.078125 48.832031 C 47.59375 48.800781 47.171875 48.863281 46.828125 49.023438 C 46.480469 49.179688 46.042969 49.535156 45.507813 50.085938 L 45.03125 50.574219 L 50.527344 55.914063 Z M 42.929688 48.535156 L 44.660156 46.753906 C 45.777344 45.601563 46.421875 44.832031 46.59375 44.441406 C 46.765625 44.046875 46.796875 43.644531 46.695313 43.226563 C 46.589844 42.808594 46.335938 42.40625 45.941406 42.023438 C 45.496094 41.589844 45.035156 41.351563 44.554688 41.300781 C 44.078125 41.25 43.609375 41.382813 43.160156 41.703125 C 42.941406 41.867188 42.359375 42.441406 41.414063 43.414063 L 39.589844 45.289063 L 42.929688 48.535156 "/>
<path style=" stroke:none;fill-rule:nonzero;fill:rgb(100%,100%,100%);fill-opacity:1;" d="M 55.878906 42.234375 L 58.292969 40.015625 C 59.167969 40.875 60.015625 41.355469 60.835938 41.453125 C 61.65625 41.554688 62.476563 41.304688 63.296875 40.699219 C 64.164063 40.058594 64.667969 39.375 64.808594 38.644531 C 64.949219 37.910156 64.820313 37.273438 64.417969 36.730469 C 64.160156 36.382813 63.851563 36.152344 63.484375 36.042969 C 63.117188 35.933594 62.636719 35.960938 62.042969 36.117188 C 61.636719 36.230469 60.757813 36.546875 59.40625 37.066406 C 57.667969 37.734375 56.296875 37.996094 55.285156 37.847656 C 53.867188 37.640625 52.726563 36.949219 51.867188 35.78125 C 51.3125 35.027344 50.984375 34.183594 50.890625 33.242188 C 50.792969 32.304688 50.980469 31.394531 51.453125 30.519531 C 51.925781 29.640625 52.675781 28.824219 53.703125 28.066406 C 55.378906 26.832031 56.941406 26.308594 58.386719 26.496094 C 59.835938 26.683594 61.078125 27.441406 62.121094 28.765625 L 59.523438 30.886719 C 58.84375 30.210938 58.195313 29.847656 57.570313 29.796875 C 56.945313 29.742188 56.253906 29.996094 55.496094 30.554688 C 54.710938 31.132813 54.230469 31.765625 54.046875 32.445313 C 53.929688 32.886719 54.015625 33.296875 54.296875 33.679688 C 54.550781 34.027344 54.90625 34.230469 55.359375 34.28125 C 55.929688 34.347656 57 34.066406 58.5625 33.441406 C 60.128906 32.816406 61.359375 32.457031 62.257813 32.359375 C 63.15625 32.261719 64.019531 32.398438 64.839844 32.773438 C 65.664063 33.144531 66.421875 33.800781 67.109375 34.734375 C 67.734375 35.578125 68.105469 36.527344 68.222656 37.582031 C 68.34375 38.632813 68.148438 39.625 67.632813 40.558594 C 67.121094 41.488281 66.285156 42.386719 65.125 43.238281 C 63.4375 44.484375 61.820313 45.007813 60.28125 44.8125 C 58.738281 44.617188 57.273438 43.757813 55.878906 42.234375 "/>
<path style=" stroke:none;fill-rule:nonzero;fill:rgb(100%,100%,100%);fill-opacity:1;" d="M 72.917969 37.652344 L 63.78125 21.738281 L 66.683594 20.066406 L 75.824219 35.984375 L 72.917969 37.652344 "/>
<path style=" stroke:none;fill-rule:nonzero;fill:rgb(100%,100%,100%);fill-opacity:1;" d="M 82.242188 32.746094 L 76.109375 18.785156 L 71.601563 20.765625 L 70.351563 17.925781 L 82.421875 12.617188 L 83.671875 15.460938 L 79.175781 17.4375 L 85.308594 31.398438 L 82.242188 32.746094 "/>
<path style=" stroke:none;fill-rule:nonzero;fill:rgb(100%,100%,100%);fill-opacity:1;" d="M 96.15625 27.582031 L 94.152344 20.121094 L 85.527344 11.433594 L 89.320313 10.414063 L 94.972656 16.414063 L 96.785156 8.410156 L 100.511719 7.410156 L 97.386719 19.28125 L 99.382813 26.71875 L 96.15625 27.582031 "/>
<path style=" stroke:none;fill-rule:nonzero;fill:rgb(100%,100%,100%);fill-opacity:1;" d="M 112.464844 14.96875 C 112.421875 13.101563 112.632813 11.527344 113.109375 10.246094 C 113.464844 9.300781 113.957031 8.449219 114.59375 7.691406 C 115.226563 6.933594 115.929688 6.363281 116.695313 5.988281 C 117.71875 5.480469 118.902344 5.207031 120.253906 5.175781 C 122.699219 5.117188 124.675781 5.90625 126.183594 7.550781 C 127.6875 9.191406 128.480469 11.503906 128.554688 14.492188 C 128.625 17.453125 127.953125 19.789063 126.535156 21.496094 C 125.121094 23.203125 123.195313 24.089844 120.757813 24.148438 C 118.292969 24.207031 116.3125 23.421875 114.8125 21.792969 C 113.316406 20.164063 112.535156 17.890625 112.464844 14.96875 Z M 115.914063 14.761719 C 115.964844 16.839844 116.433594 18.402344 117.328125 19.453125 C 118.222656 20.503906 119.335938 21.015625 120.671875 20.980469 C 122.007813 20.949219 123.089844 20.390625 123.921875 19.308594 C 124.75 18.222656 125.140625 16.613281 125.089844 14.488281 C 125.035156 12.386719 124.582031 10.828125 123.722656 9.8125 C 122.867188 8.796875 121.746094 8.308594 120.363281 8.339844 C 118.984375 8.375 117.886719 8.925781 117.0625 9.992188 C 116.246094 11.058594 115.863281 12.648438 115.914063 14.761719 "/>
<path style=" stroke:none;fill-rule:nonzero;fill:rgb(100%,100%,100%);fill-opacity:1;" d="M 131.464844 24.027344 L 134.058594 5.859375 L 145.316406 7.464844 L 144.878906 10.539063 L 136.933594 9.40625 L 136.320313 13.703125 L 143.179688 14.683594 L 142.738281 17.757813 L 135.882813 16.777344 L 134.777344 24.5 L 131.464844 24.027344 "/>
<path style=" stroke:none;fill-rule:nonzero;fill:rgb(100%,100%,100%);fill-opacity:1;" d="M 152.085938 27.898438 L 158.90625 10.863281 L 163.5625 12.726563 L 161.703125 25.464844 L 169.121094 14.949219 L 173.785156 16.820313 L 166.960938 33.855469 L 164.074219 32.699219 L 169.441406 19.289063 L 161.015625 31.476563 L 158.019531 30.277344 L 160.34375 15.644531 L 154.972656 29.054688 L 152.085938 27.898438 "/>
<path style=" stroke:none;fill-rule:nonzero;fill:rgb(100%,100%,100%);fill-opacity:1;" d="M 174.15625 27.410156 C 175.164063 25.835938 176.226563 24.652344 177.335938 23.859375 C 178.160156 23.277344 179.046875 22.851563 179.996094 22.578125 C 180.949219 22.304688 181.847656 22.230469 182.695313 22.347656 C 183.828125 22.496094 184.960938 22.9375 186.097656 23.667969 C 188.152344 24.988281 189.347656 26.753906 189.671875 28.957031 C 190.003906 31.160156 189.359375 33.523438 187.742188 36.035156 C 186.140625 38.527344 184.277344 40.085938 182.144531 40.703125 C 180.015625 41.324219 177.925781 40.976563 175.875 39.660156 C 173.800781 38.328125 172.601563 36.566406 172.273438 34.378906 C 171.949219 32.191406 172.574219 29.867188 174.15625 27.410156 Z M 177.128906 29.171875 C 176.003906 30.917969 175.519531 32.480469 175.667969 33.851563 C 175.816406 35.222656 176.453125 36.269531 177.578125 36.988281 C 178.703125 37.710938 179.910156 37.855469 181.207031 37.425781 C 182.503906 36.992188 183.726563 35.878906 184.878906 34.089844 C 186.015625 32.320313 186.511719 30.773438 186.367188 29.453125 C 186.226563 28.132813 185.574219 27.097656 184.414063 26.351563 C 183.253906 25.605469 182.03125 25.445313 180.753906 25.867188 C 179.476563 26.292969 178.269531 27.394531 177.128906 29.171875 "/>
<path style=" stroke:none;fill-rule:nonzero;fill:rgb(100%,100%,100%);fill-opacity:1;" d="M 197.273438 31.992188 L 201.757813 36.164063 C 202.769531 37.105469 203.457031 37.90625 203.828125 38.570313 C 204.324219 39.46875 204.550781 40.449219 204.507813 41.511719 C 204.464844 42.578125 204.175781 43.664063 203.640625 44.769531 C 203.105469 45.875 202.253906 47.054688 201.085938 48.316406 C 200.054688 49.421875 199.042969 50.257813 198.050781 50.824219 C 196.835938 51.519531 195.664063 51.90625 194.539063 51.988281 C 193.6875 52.050781 192.78125 51.871094 191.816406 51.457031 C 191.101563 51.140625 190.289063 50.5625 189.382813 49.71875 L 184.769531 45.425781 Z M 197.609375 36.546875 L 189.328125 45.445313 L 191.160156 47.148438 C 191.84375 47.785156 192.378906 48.203125 192.761719 48.402344 C 193.261719 48.660156 193.765625 48.78125 194.269531 48.765625 C 194.777344 48.746094 195.394531 48.511719 196.121094 48.066406 C 196.847656 47.617188 197.691406 46.875 198.660156 45.835938 C 199.628906 44.796875 200.285156 43.921875 200.636719 43.214844 C 200.988281 42.503906 201.160156 41.851563 201.152344 41.265625 C 201.144531 40.675781 200.964844 40.113281 200.605469 39.574219 C 200.34375 39.171875 199.710938 38.503906 198.714844 37.570313 L 197.609375 36.546875 "/>
<path style=" stroke:none;fill-rule:nonzero;fill:rgb(100%,100%,100%);fill-opacity:1;" d="M 196.824219 57.109375 L 211.367188 45.910156 L 218.871094 55.660156 L 216.414063 57.554688 L 210.953125 50.460938 L 207.726563 52.945313 L 212.808594 59.542969 L 210.359375 61.429688 L 205.277344 54.828125 L 201.320313 57.878906 L 206.976563 65.222656 L 204.523438 67.109375 L 196.824219 57.109375 "/>
<path style=" stroke:none;fill-rule:nonzero;fill:rgb(100%,100%,100%);fill-opacity:1;" d="M 206.101563 69.53125 L 222.273438 60.859375 L 225.609375 67.070313 C 226.445313 68.636719 226.910156 69.847656 227 70.710938 C 227.089844 71.574219 226.875 72.421875 226.359375 73.242188 C 225.847656 74.066406 225.109375 74.738281 224.15625 75.25 C 222.941406 75.898438 221.765625 76.113281 220.628906 75.894531 C 219.492188 75.671875 218.476563 74.976563 217.585938 73.804688 C 217.515625 74.660156 217.34375 75.433594 217.074219 76.113281 C 216.804688 76.789063 216.230469 77.820313 215.351563 79.199219 L 213.152344 82.675781 L 211.257813 79.148438 L 213.632813 75.125 C 214.484375 73.691406 214.996094 72.75 215.175781 72.292969 C 215.351563 71.839844 215.417969 71.421875 215.371094 71.046875 C 215.324219 70.667969 215.121094 70.140625 214.757813 69.460938 L 214.4375 68.863281 L 207.6875 72.484375 Z M 217.019531 67.480469 L 218.1875 69.664063 C 218.949219 71.078125 219.488281 71.929688 219.8125 72.210938 C 220.132813 72.492188 220.511719 72.644531 220.9375 72.671875 C 221.371094 72.695313 221.828125 72.578125 222.3125 72.320313 C 222.855469 72.027344 223.226563 71.660156 223.421875 71.21875 C 223.613281 70.777344 223.628906 70.292969 223.457031 69.765625 C 223.367188 69.507813 223 68.78125 222.359375 67.582031 L 221.121094 65.277344 L 217.019531 67.480469 "/>
<path style=" stroke:none;fill-rule:nonzero;fill:rgb(100%,100%,100%);fill-opacity:1;" d="M 213.769531 84.449219 L 231.179688 78.640625 L 232.210938 81.734375 L 222.734375 92.054688 L 234.359375 88.175781 L 235.34375 91.125 L 217.9375 96.933594 L 216.871094 93.746094 L 226.105469 83.613281 L 214.753906 87.402344 L 213.769531 84.449219 "/>
<path style=" stroke:none;fill-rule:nonzero;fill:rgb(100%,100%,100%);fill-opacity:1;" d="M 219.984375 107.308594 L 238.105469 105.617188 L 238.417969 108.953125 L 223.371094 110.359375 L 224.148438 118.652344 L 221.066406 118.941406 L 219.984375 107.308594 "/>
<path style=" stroke:none;fill-rule:nonzero;fill:rgb(100%,100%,100%);fill-opacity:1;" d="M 220.128906 136.339844 L 220.371094 132.703125 L 224.628906 131.535156 L 225.070313 124.917969 L 221 123.273438 L 221.238281 119.726563 L 239.117188 127.398438 L 238.882813 130.933594 Z M 227.785156 130.667969 L 234.730469 128.839844 L 228.085938 126.148438 Z M 227.785156 130.667969 "/>
<path style=" stroke:none;fill-rule:nonzero;fill:rgb(100%,100%,100%);fill-opacity:1;" d="M 219.710938 138.113281 L 237.550781 142.433594 L 236.78125 145.601563 L 223.269531 149.316406 L 235.183594 152.203125 L 234.449219 155.226563 L 216.613281 150.90625 L 217.402344 147.640625 L 230.609375 143.957031 L 218.980469 141.140625 L 219.710938 138.113281 "/>
<path style=" stroke:none;fill-rule:nonzero;fill:rgb(100%,100%,100%);fill-opacity:1;" d="M 218.628906 164.078125 L 221.460938 165.320313 L 218.5625 171.933594 L 211.863281 168.996094 C 211.460938 168.054688 211.261719 166.855469 211.273438 165.40625 C 211.28125 163.957031 211.5625 162.609375 212.109375 161.355469 C 212.808594 159.769531 213.78125 158.542969 215.039063 157.683594 C 216.292969 156.828125 217.738281 156.402344 219.371094 156.40625 C 221.003906 156.414063 222.628906 156.773438 224.238281 157.476563 C 225.988281 158.246094 227.398438 159.257813 228.472656 160.519531 C 229.539063 161.777344 230.15625 163.207031 230.324219 164.804688 C 230.453125 166.023438 230.199219 167.359375 229.566406 168.808594 C 228.738281 170.695313 227.65625 171.976563 226.316406 172.65625 C 224.976563 173.332031 223.46875 173.484375 221.789063 173.113281 L 222.492188 169.789063 C 223.414063 169.933594 224.242188 169.816406 224.980469 169.4375 C 225.714844 169.054688 226.277344 168.421875 226.664063 167.539063 C 227.253906 166.199219 227.25 164.925781 226.65625 163.722656 C 226.0625 162.519531 224.84375 161.511719 222.992188 160.699219 C 220.996094 159.824219 219.324219 159.570313 217.976563 159.9375 C 216.628906 160.300781 215.667969 161.132813 215.097656 162.429688 C 214.816406 163.074219 214.675781 163.78125 214.667969 164.546875 C 214.664063 165.316406 214.761719 166.019531 214.953125 166.65625 L 217.089844 167.59375 L 218.628906 164.078125 "/>
<path style=" stroke:none;fill-rule:nonzero;fill:rgb(100%,100%,100%);fill-opacity:1;" d="M 223.238281 180.867188 L 221.371094 183.648438 L 213.121094 178.109375 C 211.8125 177.226563 210.9375 176.691406 210.503906 176.5 C 209.800781 176.203125 209.109375 176.148438 208.433594 176.34375 C 207.753906 176.535156 207.152344 177.023438 206.632813 177.800781 C 206.101563 178.589844 205.878906 179.304688 205.96875 179.945313 C 206.058594 180.585938 206.335938 181.121094 206.796875 181.550781 C 207.261719 181.980469 208.097656 182.601563 209.304688 183.410156 L 217.734375 189.070313 L 215.863281 191.851563 L 207.863281 186.476563 C 206.03125 185.25 204.789063 184.308594 204.136719 183.648438 C 203.480469 182.992188 203.03125 182.285156 202.78125 181.535156 C 202.535156 180.78125 202.484375 179.960938 202.628906 179.078125 C 202.773438 178.195313 203.214844 177.210938 203.945313 176.117188 C 204.828125 174.804688 205.664063 173.917969 206.460938 173.464844 C 207.253906 173.011719 208.050781 172.765625 208.851563 172.730469 C 209.652344 172.699219 210.390625 172.816406 211.0625 173.085938 C 212.058594 173.492188 213.40625 174.265625 215.113281 175.410156 L 223.238281 180.867188 "/>
<path style=" stroke:none;fill-rule:nonzero;fill:rgb(100%,100%,100%);fill-opacity:1;" d="M 188.078125 195.195313 L 190.597656 192.5625 L 194.609375 194.398438 L 199.195313 189.605469 L 197.132813 185.734375 L 199.589844 183.164063 L 208.382813 200.523438 L 205.933594 203.082031 Z M 197.589844 195.757813 L 204.089844 198.8125 L 200.71875 192.484375 Z M 197.589844 195.757813 "/>
<path style=" stroke:none;fill-rule:nonzero;fill:rgb(100%,100%,100%);fill-opacity:1;" d="M 184.4375 206.289063 L 186.261719 208.789063 L 180.429688 213.042969 L 176.117188 207.136719 C 176.242188 206.117188 176.675781 204.984375 177.410156 203.738281 C 178.152344 202.492188 179.070313 201.464844 180.175781 200.660156 C 181.578125 199.636719 183.039063 199.070313 184.554688 198.960938 C 186.070313 198.851563 187.53125 199.210938 188.941406 200.039063 C 190.347656 200.863281 191.570313 201.992188 192.609375 203.414063 C 193.734375 204.957031 194.441406 206.542969 194.734375 208.167969 C 195.023438 209.796875 194.839844 211.339844 194.179688 212.804688 C 193.679688 213.925781 192.785156 214.949219 191.507813 215.886719 C 189.84375 217.097656 188.261719 217.660156 186.765625 217.570313 C 185.265625 217.484375 183.882813 216.855469 182.621094 215.6875 L 184.902344 213.171875 C 185.625 213.761719 186.398438 214.078125 187.230469 214.117188 C 188.058594 214.160156 188.859375 213.894531 189.640625 213.324219 C 190.824219 212.464844 191.460938 211.363281 191.554688 210.023438 C 191.648438 208.6875 191.097656 207.199219 189.90625 205.570313 C 188.625 203.808594 187.308594 202.746094 185.960938 202.382813 C 184.609375 202.019531 183.363281 202.253906 182.214844 203.089844 C 181.648438 203.503906 181.171875 204.042969 180.78125 204.703125 C 180.390625 205.367188 180.117188 206.023438 179.964844 206.671875 L 181.339844 208.550781 L 184.4375 206.289063 "/>
<path style=" stroke:none;fill-rule:nonzero;fill:rgb(100%,100%,100%);fill-opacity:1;" d="M 171.871094 206.605469 L 180.019531 223.054688 L 168.992188 228.515625 L 167.613281 225.730469 L 175.636719 221.757813 L 173.832031 218.113281 L 166.367188 221.808594 L 164.996094 219.039063 L 172.460938 215.339844 L 170.242188 210.867188 L 161.9375 214.980469 L 160.5625 212.207031 L 171.871094 206.605469 "/>
<path style=" stroke:none;fill-rule:nonzero;fill:rgb(100%,100%,100%);fill-opacity:1;" d="M 160.449219 218.695313 L 157.441406 220 C 156.894531 218.902344 156.25 218.171875 155.507813 217.808594 C 154.765625 217.445313 153.90625 217.414063 152.9375 217.71875 C 151.90625 218.039063 151.203125 218.523438 150.832031 219.167969 C 150.460938 219.8125 150.375 220.457031 150.574219 221.101563 C 150.703125 221.515625 150.925781 221.835938 151.234375 222.058594 C 151.546875 222.28125 152.007813 222.414063 152.621094 222.457031 C 153.042969 222.484375 153.976563 222.472656 155.421875 222.425781 C 157.28125 222.359375 158.667969 222.5625 159.570313 223.03125 C 160.84375 223.695313 161.695313 224.71875 162.128906 226.105469 C 162.40625 226.996094 162.4375 227.902344 162.226563 228.820313 C 162.011719 229.742188 161.535156 230.539063 160.800781 231.210938 C 160.066406 231.886719 159.089844 232.414063 157.871094 232.792969 C 155.882813 233.414063 154.238281 233.398438 152.933594 232.746094 C 151.625 232.097656 150.695313 230.972656 150.144531 229.378906 L 153.296875 228.226563 C 153.714844 229.085938 154.207031 229.640625 154.78125 229.894531 C 155.355469 230.148438 156.089844 230.136719 156.992188 229.855469 C 157.921875 229.566406 158.585938 229.128906 158.976563 228.542969 C 159.230469 228.164063 159.289063 227.75 159.144531 227.296875 C 159.015625 226.882813 158.746094 226.574219 158.339844 226.378906 C 157.820313 226.132813 156.71875 226.046875 155.035156 226.125 C 153.351563 226.203125 152.070313 226.140625 151.1875 225.941406 C 150.308594 225.738281 149.539063 225.328125 148.882813 224.707031 C 148.226563 224.082031 147.726563 223.21875 147.382813 222.113281 C 147.070313 221.109375 147.027344 220.089844 147.257813 219.054688 C 147.488281 218.019531 148 217.148438 148.789063 216.433594 C 149.578125 215.722656 150.660156 215.148438 152.035156 214.722656 C 154.039063 214.097656 155.738281 214.128906 157.128906 214.816406 C 158.519531 215.507813 159.628906 216.800781 160.449219 218.695313 "/>
<path style=" stroke:none;fill-rule:nonzero;fill:rgb(100%,100%,100%);fill-opacity:1;" d="M 213.652344 120.929688 C 213.652344 170.960938 173.09375 211.519531 123.0625 211.519531 C 73.035156 211.519531 32.476563 170.960938 32.476563 120.929688 C 32.476563 70.898438 73.035156 30.339844 123.0625 30.339844 C 173.09375 30.339844 213.652344 70.898438 213.652344 120.929688 "/>
<path style=" stroke:none;fill-rule:nonzero;fill:rgb(16.899109%,27.49939%,49.798584%);fill-opacity:1;" d="M 202.117188 120.929688 C 202.117188 164.589844 166.722656 199.984375 123.0625 199.984375 C 79.40625 199.984375 44.011719 164.589844 44.011719 120.929688 C 44.011719 77.273438 79.40625 41.878906 123.0625 41.878906 C 166.722656 41.878906 202.117188 77.273438 202.117188 120.929688 "/>
<path style=" stroke:none;fill-rule:nonzero;fill:rgb(100%,100%,100%);fill-opacity:1;" d="M 84.304688 182.898438 L 84.160156 129.203125 L 94.703125 129.34375 L 94.84375 131.054688 C 94.84375 131.054688 107.804688 124.929688 111.507813 133.902344 L 112.789063 136.179688 L 113.644531 171.933594 C 113.644531 171.933594 114.785156 173.070313 117.0625 173.785156 C 117.0625 173.785156 119.914063 173.070313 120.625 171.363281 L 120.484375 129.34375 L 131.164063 128.632813 L 131.308594 130.199219 C 131.308594 130.199219 140.851563 127.347656 144.695313 130.054688 L 147.117188 131.335938 C 147.117188 131.335938 157.375 124.074219 164.070313 132.191406 C 164.070313 132.191406 166.492188 134.898438 166.347656 137.460938 L 165.636719 169.082031 C 165.636719 169.082031 165.636719 175.636719 172.613281 174.355469 L 183.296875 174.070313 L 186.574219 174.496094 L 180.164063 183.183594 C 180.164063 183.183594 176.746094 186.460938 175.75 186.886719 C 174.753906 187.316406 175.464844 180.761719 175.464844 180.761719 C 175.464844 180.761719 158.800781 187.601563 155.238281 171.078125 L 155.523438 137.320313 C 155.523438 137.320313 153.527344 133.617188 148.257813 135.042969 L 148.972656 181.191406 L 138.144531 181.332031 L 138.289063 137.746094 C 138.289063 137.746094 138.429688 135.042969 131.59375 134.898438 L 131.308594 171.933594 C 131.308594 171.933594 127.320313 183.328125 116.921875 182.757813 C 116.921875 182.757813 104.957031 183.183594 102.964844 172.359375 L 102.820313 139.457031 C 102.820313 139.457031 100.96875 132.90625 95.128906 135.894531 L 95.699219 182.898438 L 84.304688 182.898438 "/>
<path style=" stroke:none;fill-rule:nonzero;fill:rgb(96.499634%,85.499573%,35.699463%);fill-opacity:1;" d="M 78.796875 71.425781 L 77.921875 98.472656 L 86.214844 99.78125 L 77.050781 115.050781 L 86.214844 120.285156 L 99.300781 98.910156 L 113.695313 121.59375 L 121.550781 115.050781 L 108.460938 89.75 L 93.191406 89.75 L 91.882813 71.425781 L 78.796875 71.425781 "/>
<path style=" stroke:none;fill-rule:nonzero;fill:rgb(96.499634%,85.499573%,35.699463%);fill-opacity:1;" d="M 78.359375 58.773438 L 78.359375 69.246094 L 92.320313 67.9375 L 92.757813 61.828125 L 78.359375 58.773438 "/>
<path style=" stroke:none;fill-rule:nonzero;fill:rgb(96.499634%,85.499573%,35.699463%);fill-opacity:1;" d="M 166.484375 71.425781 L 167.355469 98.472656 L 159.066406 99.78125 L 168.230469 115.050781 L 159.066406 120.285156 L 145.980469 98.910156 L 131.585938 121.59375 L 123.730469 115.050781 L 136.820313 89.75 L 152.085938 89.75 L 153.394531 71.425781 L 166.484375 71.425781 "/>
<path style=" stroke:none;fill-rule:nonzero;fill:rgb(96.499634%,85.499573%,35.699463%);fill-opacity:1;" d="M 166.921875 58.773438 L 166.921875 69.246094 L 152.960938 67.9375 L 152.523438 61.828125 L 166.921875 58.773438 "/>
<path style="fill:none;stroke-width:20;stroke-linecap:butt;stroke-linejoin:miter;stroke:rgb(100%,100%,100%);stroke-opacity:1;stroke-miterlimit:10;" d="M 957.8125 1771.607813 C 957.8125 1771.607813 998.90625 1662.81875 1232.304688 1760.826563 C 1232.304688 1760.826563 1438.359375 1834.303125 1498.90625 1752.896875 " transform="matrix(0.1,0,0,-0.1,0,241.86)"/>
<path style=" stroke:none;fill-rule:nonzero;fill:rgb(100%,100%,100%);fill-opacity:1;" d="M 123.0625 215.003906 L 125.90625 223.742188 L 135.097656 223.742188 L 127.660156 229.144531 L 130.5 237.886719 L 123.0625 232.484375 L 115.628906 237.886719 L 118.46875 229.144531 L 111.03125 223.742188 L 120.226563 223.742188 L 123.0625 215.003906 "/>
</g>
</svg>
