<svg width="70" height="70" viewBox="0 0 70 70" fill="none" xmlns="http://www.w3.org/2000/svg">
<path d="M39.253 27.7242C38.7979 27.7242 38.428 27.3548 38.428 26.8992V25.4973C38.428 25.0423 38.7974 24.6724 39.253 24.6724C39.708 24.6724 40.0779 25.0417 40.0779 25.4973V26.8992C40.0779 27.3548 39.708 27.7242 39.253 27.7242Z" fill="#EB1E32"/>
<path d="M35.7847 27.7242C35.3297 27.7242 34.9598 27.3548 34.9598 26.8992V25.4973C34.9598 25.0423 35.3291 24.6724 35.7847 24.6724C36.2397 24.6724 36.6097 25.0417 36.6097 25.4973V26.8992C36.6091 27.3548 36.2403 27.7242 35.7847 27.7242Z" fill="#EB1E32"/>
<path d="M32.3167 27.7242C31.8617 27.7242 31.4918 27.3548 31.4918 26.8992V25.4973C31.4918 25.0423 31.8611 24.6724 32.3167 24.6724C32.7717 24.6724 33.1416 25.0417 33.1416 25.4973V26.8992C33.1416 27.3548 32.7723 27.7242 32.3167 27.7242Z" fill="#EB1E32"/>
<path d="M39.253 33.4571C38.7979 33.4571 38.428 33.0878 38.428 32.6322V31.2308C38.428 30.7758 38.7974 30.4059 39.253 30.4059C39.708 30.4059 40.0779 30.7752 40.0779 31.2308V32.6322C40.0779 33.0878 39.708 33.4571 39.253 33.4571Z" fill="#EB1E32"/>
<path d="M35.7847 33.4571C35.3297 33.4571 34.9598 33.0878 34.9598 32.6322V31.2308C34.9598 30.7758 35.3291 30.4059 35.7847 30.4059C36.2397 30.4059 36.6097 30.7752 36.6097 31.2308V32.6322C36.6091 33.0878 36.2403 33.4571 35.7847 33.4571Z" fill="#EB1E32"/>
<path d="M32.3167 33.4571C31.8617 33.4571 31.4918 33.0878 31.4918 32.6322V31.2308C31.4918 30.7758 31.8611 30.4059 32.3167 30.4059C32.7717 30.4059 33.1416 30.7752 33.1416 31.2308V32.6322C33.1416 33.0878 32.7723 33.4571 32.3167 33.4571Z" fill="#EB1E32"/>
<path d="M39.253 39.1902C38.7979 39.1902 38.428 38.8209 38.428 38.3653V36.9634C38.428 36.5083 38.7974 36.1384 39.253 36.1384C39.708 36.1384 40.0779 36.5077 40.0779 36.9634V38.3653C40.0779 38.8209 39.708 39.1902 39.253 39.1902Z" fill="#EB1E32"/>
<path d="M35.7847 39.1902C35.3297 39.1902 34.9598 38.8209 34.9598 38.3653V36.9634C34.9598 36.5083 35.3291 36.1384 35.7847 36.1384C36.2397 36.1384 36.6097 36.5077 36.6097 36.9634V38.3653C36.6091 38.8209 36.2403 39.1902 35.7847 39.1902Z" fill="#EB1E32"/>
<path d="M32.3167 39.1902C31.8617 39.1902 31.4918 38.8209 31.4918 38.3653V36.9634C31.4918 36.5083 31.8611 36.1384 32.3167 36.1384C32.7717 36.1384 33.1416 36.5077 33.1416 36.9634V38.3653C33.1416 38.8209 32.7723 39.1902 32.3167 39.1902Z" fill="#EB1E32"/>
<path d="M39.253 44.9222C38.7979 44.9222 38.428 44.5528 38.428 44.0972V42.6953C38.428 42.2403 38.7974 41.8704 39.253 41.8704C39.708 41.8704 40.0779 42.2397 40.0779 42.6953V44.0972C40.0779 44.5528 39.708 44.9222 39.253 44.9222Z" fill="#EB1E32"/>
<path d="M35.7847 44.9222C35.3297 44.9222 34.9598 44.5528 34.9598 44.0972V42.6953C34.9598 42.2403 35.3291 41.8704 35.7847 41.8704C36.2397 41.8704 36.6097 42.2397 36.6097 42.6953V44.0972C36.6091 44.5528 36.2403 44.9222 35.7847 44.9222Z" fill="#EB1E32"/>
<path d="M32.3167 44.9222C31.8617 44.9222 31.4918 44.5528 31.4918 44.0972V42.6953C31.4918 42.2403 31.8611 41.8704 32.3167 41.8704C32.7717 41.8704 33.1416 42.2397 33.1416 42.6953V44.0972C33.1416 44.5528 32.7723 44.9222 32.3167 44.9222Z" fill="#EB1E32"/>
<path d="M39.253 50.6551C38.7979 50.6551 38.428 50.2858 38.428 49.8302V48.4288C38.428 47.9738 38.7974 47.6039 39.253 47.6039C39.708 47.6039 40.0779 47.9732 40.0779 48.4288V49.8302C40.0779 50.2852 39.708 50.6551 39.253 50.6551Z" fill="#EB1E32"/>
<path d="M35.7847 50.6551C35.3297 50.6551 34.9598 50.2858 34.9598 49.8302V48.4288C34.9598 47.9738 35.3291 47.6039 35.7847 47.6039C36.2397 47.6039 36.6097 47.9732 36.6097 48.4288V49.8302C36.6091 50.2852 36.2403 50.6551 35.7847 50.6551Z" fill="#EB1E32"/>
<path d="M32.3167 50.6551C31.8617 50.6551 31.4918 50.2858 31.4918 49.8302L31.4923 48.4288C31.4923 47.9738 31.8617 47.6039 32.3173 47.6039C32.7723 47.6039 33.1422 47.9732 33.1422 48.4288V49.8302C33.1416 50.2852 32.7723 50.6551 32.3167 50.6551Z" fill="#EB1E32"/>
<path d="M8.75069 56.3604C8.75069 56.8154 9.12001 57.1853 9.57563 57.1853H59.8119C60.267 57.1853 60.6369 56.816 60.6369 56.3604C60.6369 55.9054 60.2676 55.5355 59.8119 55.5355H58.287V31.8502C58.287 31.3952 57.9176 31.0253 57.462 31.0253L43.9933 31.0259V13.9501C43.9933 13.6613 43.8426 13.3944 43.5963 13.2448C43.3507 13.0946 43.0435 13.0854 42.7881 13.2183L27.4751 21.191C27.2018 21.3331 27.0316 21.615 27.0316 21.9228V36.8381H12.2119C11.7569 36.8381 11.387 37.2075 11.387 37.6631V55.5356H9.57379C9.11876 55.535 8.75 55.9043 8.75 56.36L8.75069 56.3604ZM43.9936 43.5199H56.6379V55.5361L43.9936 55.5356V43.5199ZM43.9936 37.7873H56.6379V41.8706L43.9936 41.8701V37.7873ZM43.9936 32.6749H56.6379V36.1387H43.9936V32.6749ZM28.6806 22.4237L42.3431 15.3098V55.5348H28.6806V22.4237ZM17.1148 48.9468C17.1148 47.2348 18.4713 45.8414 20.139 45.8414C21.8067 45.8414 23.1637 47.2342 23.1637 48.9468V55.5359H17.1148V48.9468ZM13.0368 38.4877H27.0313V55.5356H24.8136V48.9465C24.8136 46.3249 22.7174 44.1919 20.139 44.1919C17.5618 44.1919 15.4656 46.3243 15.4656 48.9465V55.5356H13.0368V38.4877Z" fill="#EB1E32"/>
</svg>
