<svg width="70" height="40" viewBox="0 0 70 40" fill="none" xmlns="http://www.w3.org/2000/svg">
<path d="M35.0036 0C29.7929 0 25.5508 4.34553 25.5508 9.65763C25.5508 13.0181 27.2507 15.9853 29.8177 17.7148C26.7173 18.7672 24.0346 20.7339 22.067 23.307C20.9791 22.4575 19.7636 21.7744 18.4532 21.2849C20.4403 19.7874 21.7388 17.3819 21.7388 14.6782C21.7388 10.1729 18.1494 6.48477 13.7381 6.48477C9.32675 6.48477 5.73727 10.1729 5.73727 14.6782C5.73727 17.3834 7.03688 19.7901 9.02564 21.2876C3.76039 23.2599 0 28.4237 0 34.5009V38.7698C0.000538912 39.0953 0.128775 39.407 0.356148 39.6362C0.58352 39.8659 0.891184 39.9939 1.21177 39.9928H19.662C19.7067 39.9977 19.7514 40.0005 19.7961 39.9999H50.2122C50.2569 40.0005 50.3022 39.9977 50.3463 39.9928H68.7979C69.4612 39.9901 69.9984 39.4437 70 38.7698V34.5009C70 28.4237 66.2461 23.2599 60.9836 21.287C62.9723 19.7901 64.272 17.3828 64.272 14.6776C64.272 10.1723 60.6825 6.4842 56.2712 6.4842C51.86 6.4842 48.2704 10.1723 48.2704 14.6776C48.2704 17.3813 49.5695 19.7873 51.5566 21.2844C50.2435 21.775 49.0274 22.4603 47.938 23.3119C45.9713 20.7373 43.2923 18.7678 40.1921 17.7148C42.7584 15.9853 44.459 13.0181 44.459 9.65763C44.459 4.34553 40.2147 0 35.0039 0H35.0036ZM35.0036 2.45036C38.9009 2.45036 42.0426 5.66102 42.0426 9.65763C42.0426 13.623 38.9498 16.8024 35.0958 16.8534C35.0651 16.8534 35.0349 16.849 35.0036 16.849C34.9724 16.849 34.9428 16.8534 34.9115 16.8534C31.0575 16.8031 27.9668 13.6231 27.9668 9.65763C27.9668 5.66046 31.1059 2.45036 35.0031 2.45036H35.0036ZM13.7382 8.93498C16.8304 8.93498 19.3251 11.4827 19.3251 14.6781C19.3251 17.852 16.8627 20.3888 13.7996 20.4232C13.7791 20.4232 13.7592 20.421 13.7381 20.421C13.7177 20.421 13.6977 20.4232 13.6767 20.4232C10.6136 20.3888 8.15119 17.8515 8.15119 14.6781C8.15119 11.4828 10.6459 8.93498 13.7381 8.93498H13.7382ZM56.2705 8.93498C59.3627 8.93498 61.8574 11.4827 61.8574 14.6781C61.8574 17.852 59.395 20.3888 56.3318 20.4232C56.3114 20.4232 56.2914 20.421 56.2704 20.421C56.2499 20.421 56.23 20.4232 56.209 20.4232C53.1459 20.3888 50.6835 17.8515 50.6835 14.6781C50.6835 11.4828 53.1781 8.93498 56.2704 8.93498H56.2705ZM34.9112 19.3036C34.9419 19.3042 34.9721 19.308 35.0034 19.308C35.0341 19.308 35.0642 19.3036 35.0955 19.3036C42.8247 19.354 49.0104 25.6872 49.0104 33.6151L49.0098 37.5489H20.998V33.6151C20.998 25.6865 27.1819 19.354 34.9101 19.3036H34.9112ZM13.6458 22.8764C13.6765 22.8769 13.7067 22.8808 13.7379 22.8808C13.7692 22.8808 13.7988 22.8764 13.83 22.8764C16.4443 22.8977 18.8302 23.8128 20.73 25.3437C19.3706 27.7854 18.5844 30.6037 18.5844 33.6158V37.5402H2.41289V34.5007C2.41289 28.0576 7.40338 22.9267 13.6455 22.8758L13.6458 22.8764ZM56.178 22.8764C56.2093 22.8769 56.2389 22.8808 56.2702 22.8808C56.3014 22.8808 56.3311 22.8764 56.3623 22.8764C62.6044 22.9267 67.5949 28.0583 67.5949 34.5013V37.5402H51.4151L51.4146 33.6158C51.4146 30.6054 50.6306 27.7892 49.2738 25.348C51.1742 23.815 53.5617 22.8977 56.1782 22.8764H56.178Z" fill="#EB1E32"/>
</svg>
